<svg width="800px" height="800px" viewBox="0 0 21 22" fill="none" xmlns="http://www.w3.org/2000/svg">
<path d="M4.67758 2.45016C4.67758 3.80332 3.63033 4.90032 2.33867 4.90032C1.04713 4.90032 0 3.80332 0 2.45016C0 1.09725 1.04725 0 2.33867 0C3.63033 0 4.67758 1.09725 4.67758 2.45016Z" fill="white"/>
<path d="M4.67758 10.8C4.67758 12.1532 3.63033 13.2502 2.33867 13.2502C1.04713 13.2502 0 12.1532 0 10.8C0 9.44685 1.04725 8.34985 2.33867 8.34985C3.63033 8.34985 4.67758 9.44685 4.67758 10.8Z" fill="white"/>
<path d="M4.67758 19.1499C4.67758 20.5028 3.63033 21.6 2.33867 21.6C1.04713 21.6 0 20.5028 0 19.1499C0 17.797 1.04725 16.6997 2.33867 16.6997C3.63033 16.6997 4.67758 17.7968 4.67758 19.1499Z" fill="white"/>
<path d="M12.8388 10.8C12.8388 12.1532 11.7916 13.2502 10.4999 13.2502C9.20839 13.2502 8.16125 12.1532 8.16125 10.8C8.16125 9.44685 9.20851 8.34985 10.4999 8.34985C11.7916 8.34985 12.8388 9.44685 12.8388 10.8Z" fill="white"/>
<path d="M12.8388 2.45016C12.8388 3.80332 11.7916 4.90032 10.4999 4.90032C9.20839 4.90032 8.16125 3.80332 8.16125 2.45016C8.16125 1.09725 9.20851 0 10.4999 0C11.7916 0 12.8388 1.09725 12.8388 2.45016Z" fill="white"/>
<path d="M21 10.8C21 12.1532 19.9528 13.2502 18.6611 13.2502C17.3696 13.2502 16.3224 12.1532 16.3224 10.8C16.3224 9.44685 17.3697 8.34985 18.6611 8.34985C19.9529 8.34985 21 9.44685 21 10.8Z" fill="white"/>
<path d="M21 2.45016C21 3.80332 19.9528 4.90032 18.6611 4.90032C17.3696 4.90032 16.3224 3.80332 16.3224 2.45016C16.3224 1.09725 17.3697 0 18.6611 0C19.9529 0 21 1.09725 21 2.45016Z" fill="white"/>
<path d="M21 19.1499C21 20.5028 19.9528 21.6 18.6611 21.6C17.3696 21.6 16.3224 20.5028 16.3224 19.1499C16.3224 17.797 17.3697 16.6997 18.6611 16.6997C19.9529 16.6997 21 17.7968 21 19.1499Z" fill="white"/>
<path d="M12.8388 19.1499C12.8388 20.5028 11.7916 21.6 10.4999 21.6C9.20839 21.6 8.16125 20.5028 8.16125 19.1499C8.16125 17.797 9.20851 16.6997 10.4999 16.6997C11.7916 16.6997 12.8388 17.7968 12.8388 19.1499Z" fill="white"/>
</svg>
